<svg xmlns="http://www.w3.org/2000/svg" viewBox="0 0 384.32 384.32"><path d="M282.16,91.93C176.2,91.93,90,178.13,90,284.09s86.2,192.16,192.16,192.16,192.16-86.2,192.16-192.16S388.12,91.93,282.16,91.93Zm0,372.72c-99.56,0-180.56-81-180.56-180.56s81-180.56,180.56-180.56,180.56,81,180.56,180.56S381.72,464.65,282.16,464.65Z" transform="translate(-90 -91.93)" fill="#991632"/><path d="M333.23,310.12,288,355.35V198.89a5.84,5.84,0,0,0-11.68,0V355.27L231.09,310a5.78,5.78,0,1,0-8.18,8.18L278,373.34a6,6,0,0,0,8.27.08l55.11-55.12a5.78,5.78,0,0,0-8.18-8.18Z" transform="translate(-90 -91.93)" fill="#991632"/></svg>
