<svg id="Laag_1" data-name="Laag 1" xmlns="http://www.w3.org/2000/svg" viewBox="0 0 384.32 384.32"><title>arrow--link</title><path d="M90,284.09c0,106,86.2,192.16,192.16,192.16s192.16-86.2,192.16-192.16S388.12,91.93,282.16,91.93,90,178.13,90,284.09Zm372.72,0c0,99.56-81,180.56-180.56,180.56s-180.56-81-180.56-180.56,81-180.56,180.56-180.56S462.72,184.53,462.72,284.09Z" transform="translate(-90 -91.93)" fill="#991733"/><path d="M308.19,233l45.23,45.23H197a5.84,5.84,0,0,0,0,11.68H353.34l-45.23,45.23a5.78,5.78,0,1,0,8.18,8.18l55.12-55.12a6,6,0,0,0,.08-8.27l-55.12-55.11a5.78,5.78,0,1,0-8.18,8.18Z" transform="translate(-90 -91.93)" fill="#991733"/></svg>