<svg id="Laag_1" data-name="Laag 1" xmlns="http://www.w3.org/2000/svg" xmlns:xlink="http://www.w3.org/1999/xlink" viewBox="0 0 392 318.16"><defs><clipPath id="clip-path" transform="translate(-87 -124.73)"><rect x="87" y="123.93" width="391.92" height="319.92" fill="none"/></clipPath></defs><title>camera</title><g clip-path="url(#clip-path)"><path d="M87,222.09v173a47.87,47.87,0,0,0,47.84,47.84H431.16A47.87,47.87,0,0,0,479,395.05v-173a45.55,45.55,0,0,0-45.52-45.52H369.8l-1.52-6.64a58.15,58.15,0,0,0-57-45.2H254.6a58.28,58.28,0,0,0-57,45.2l-1.52,6.64h-63.6A45.6,45.6,0,0,0,87,222.09Zm117-25.92a9.75,9.75,0,0,0,9.52-7.6l3.28-14.24a38.7,38.7,0,0,1,37.84-30h56.72a38.7,38.7,0,0,1,37.84,30l3.28,14.24a9.83,9.83,0,0,0,9.52,7.6H433.4a25.91,25.91,0,0,1,25.92,25.92v173a28.24,28.24,0,0,1-28.24,28.24H134.84a28.24,28.24,0,0,1-28.24-28.24v-173a25.91,25.91,0,0,1,25.92-25.92Zm0,0" transform="translate(-87 -124.73)" fill="#fff"/></g><path d="M166.44,238a13.12,13.12,0,1,1-13.12-13.12A13.11,13.11,0,0,1,166.44,238Zm0,0" transform="translate(-87 -124.73)" fill="#fff"/><path d="M283,392.57a82.32,82.32,0,1,0-82.32-82.32A82.45,82.45,0,0,0,283,392.57Zm0-145a62.72,62.72,0,1,1-62.72,62.72A62.82,62.82,0,0,1,283,247.53Zm0,0" transform="translate(-87 -124.73)" fill="#fff"/></svg>